<svg width="299" height="98" viewBox="0 0 299 98" fill="none" xmlns="http://www.w3.org/2000/svg">
<rect x="14.5" y="34.5" width="80" height="48" stroke="black" stroke-width="7"/>
<rect x="24" y="26" width="16" height="5" fill="black"/>
<circle cx="54.5" cy="58.5" r="16.5" fill="black"/>
<path fill-rule="evenodd" clip-rule="evenodd" d="M138 80H129V35H138V38C144.5 32.5 165 30.5 165 51.5C165 72.5 144.5 71.5 138 65.5V80ZM147 61.3C152.247 61.3 156.5 57.0467 156.5 51.8C156.5 46.5533 152.247 42.3 147 42.3C141.753 42.3 137.5 46.5533 137.5 51.8C137.5 57.0467 141.753 61.3 147 61.3Z" fill="black"/>
<path d="M129 80H128.5V80.5H129V80ZM138 80V80.5H138.5V80H138ZM129 35V34.5H128.5V35H129ZM138 35H138.5V34.5H138V35ZM138 38H137.5V39.078L138.323 38.3817L138 38ZM138 65.5L138.339 65.1326L137.5 64.358V65.5H138ZM129 80.5H138V79.5H129V80.5ZM128.5 35V80H129.5V35H128.5ZM138 34.5H129V35.5H138V34.5ZM138.5 38V35H137.5V38H138.5ZM165.5 51.5C165.5 46.1684 164.198 42.2424 162.094 39.4565C159.99 36.6694 157.116 35.0676 154.055 34.3265C150.999 33.5867 147.749 33.7016 144.852 34.3479C141.96 34.9932 139.38 36.1776 137.677 37.6183L138.323 38.3817C139.87 37.0724 142.29 35.9443 145.07 35.3239C147.845 34.7047 150.938 34.6008 153.82 35.2985C156.696 35.9949 159.354 37.4868 161.296 40.0591C163.24 42.6326 164.5 46.3316 164.5 51.5H165.5ZM137.661 65.8674C139.369 67.4438 141.958 68.6631 144.856 69.2857C147.759 69.9095 151.013 69.9438 154.069 69.1073C157.131 68.2694 159.999 66.5556 162.099 63.6859C164.198 60.817 165.5 56.832 165.5 51.5H164.5C164.5 56.668 163.24 60.433 161.292 63.0954C159.345 65.7569 156.682 67.3556 153.806 68.1427C150.924 68.9312 147.835 68.903 145.066 68.308C142.292 67.7119 139.881 66.5562 138.339 65.1326L137.661 65.8674ZM138.5 80V65.5H137.5V80H138.5ZM156 51.8C156 56.7706 151.971 60.8 147 60.8V61.8C152.523 61.8 157 57.3228 157 51.8H156ZM147 42.8C151.971 42.8 156 46.8294 156 51.8H157C157 46.2772 152.523 41.8 147 41.8V42.8ZM138 51.8C138 46.8294 142.029 42.8 147 42.8V41.8C141.477 41.8 137 46.2772 137 51.8H138ZM147 60.8C142.029 60.8 138 56.7706 138 51.8H137C137 57.3228 141.477 61.8 147 61.8V60.8Z" fill="black"/>
<path fill-rule="evenodd" clip-rule="evenodd" d="M277 35H286V69L277 69V66C270.5 71.5 250 73.5 250 52.5C250 31.5 270.5 32.5 277 38.5V35ZM268 42.7C262.753 42.7 258.5 46.9533 258.5 52.2C258.5 57.4467 262.753 61.7 268 61.7C273.247 61.7 277.5 57.4467 277.5 52.2C277.5 46.9533 273.247 42.7 268 42.7Z" fill="black"/>
<path d="M286 35H286.5V34.5H286V35ZM277 35V34.5H276.5V35H277ZM286 69L286 69.5L286.5 69.5V69H286ZM277 69H276.5V69.5L277 69.5L277 69ZM277 66H277.5V64.922L276.677 65.6183L277 66ZM277 38.5L276.661 38.8674L277.5 39.642V38.5H277ZM286 34.5H277V35.5H286V34.5ZM286.5 69V35H285.5V69H286.5ZM277 69.5L286 69.5L286 68.5L277 68.5L277 69.5ZM276.5 66V69H277.5V66H276.5ZM249.5 52.5C249.5 57.8316 250.802 61.7576 252.906 64.5435C255.01 67.3306 257.884 68.9324 260.945 69.6735C264.001 70.4133 267.251 70.2984 270.148 69.6521C273.04 69.0068 275.62 67.8224 277.323 66.3817L276.677 65.6183C275.13 66.9276 272.71 68.0557 269.93 68.6761C267.155 69.2953 264.062 69.3992 261.18 68.7015C258.304 68.0051 255.646 66.5132 253.704 63.9409C251.76 61.3674 250.5 57.6684 250.5 52.5H249.5ZM277.339 38.1326C275.631 36.5562 273.042 35.3369 270.144 34.7143C267.241 34.0905 263.987 34.0562 260.931 34.8927C257.869 35.7306 255.001 37.4444 252.901 40.3141C250.802 43.183 249.5 47.168 249.5 52.5H250.5C250.5 47.332 251.76 43.567 253.708 40.9046C255.655 38.2431 258.318 36.6444 261.194 35.8573C264.076 35.0688 267.165 35.097 269.934 35.692C272.708 36.2881 275.119 37.4438 276.661 38.8674L277.339 38.1326ZM276.5 35V38.5H277.5V35H276.5ZM259 52.2C259 47.2294 263.029 43.2 268 43.2V42.2C262.477 42.2 258 46.6772 258 52.2H259ZM268 61.2C263.029 61.2 259 57.1706 259 52.2H258C258 57.7228 262.477 62.2 268 62.2V61.2ZM277 52.2C277 57.1706 272.971 61.2 268 61.2V62.2C273.523 62.2 278 57.7228 278 52.2H277ZM268 43.2C272.971 43.2 277 47.2294 277 52.2H278C278 46.6772 273.523 42.2 268 42.2V43.2Z" fill="black"/>
<path fill-rule="evenodd" clip-rule="evenodd" d="M189.7 70C199.917 70 208.2 61.9411 208.2 52C208.2 42.0589 199.917 34 189.7 34C179.483 34 171.2 42.0589 171.2 52C171.2 61.9411 179.483 70 189.7 70ZM189.5 62C194.747 62 199 57.5228 199 52C199 46.4772 194.747 42 189.5 42C184.253 42 180 46.4772 180 52C180 57.5228 184.253 62 189.5 62Z" fill="black"/>
<path d="M242.5 39L238 45C238 45 232 42 228.5 42C220 42 223.438 48 231.5 48C234 48 243.5 49 243.5 59C243.5 67.0895 234 69.3333 228.5 69.5C224.9 69.5 217 67 214 64L218.5 58C219.833 58.8333 223.7 60.7 228.5 61.5C234.5 62.5 239 55.5 227 55C217.4 54.6 214.5 48.3333 214.5 45C215.3 30.6 236.5 34 242.5 39Z" fill="black" stroke="black"/>
</svg>
